<svg width="100" height="100" viewBox="0 0 100 100" fill="none" xmlns="http://www.w3.org/2000/svg">
  <circle cx="50" cy="50" r="50" fill="#F7E2D6"/>
  <circle cx="50" cy="40" r="20" fill="#A5817B"/>
  <path d="M70 45C70 56.0457 61.0457 65 50 65C38.9543 65 30 56.0457 30 45C30 33.9543 38.9543 25 50 25C61.0457 25 70 33.9543 70 45Z" fill="#A5817B"/>
  <path d="M50 88C66.5685 88 80 74.5685 80 58H20C20 74.5685 33.4315 88 50 88Z" fill="#A5817B"/>
  <path d="M40 40C43.3137 40 46 37.3137 46 34C46 30.6863 43.3137 28 40 28C36.6863 28 34 30.6863 34 34C34 37.3137 36.6863 40 40 40Z" fill="#FFF9F5"/>
  <path d="M60 40C63.3137 40 66 37.3137 66 34C66 30.6863 63.3137 28 60 28C56.6863 28 54 30.6863 54 34C54 37.3137 56.6863 40 60 40Z" fill="#FFF9F5"/>
  <circle cx="40" cy="34" r="3" fill="#2D1D1A"/>
  <circle cx="60" cy="34" r="3" fill="#2D1D1A"/>
  <path d="M46 44C46 45.1046 45.1046 46 44 46H44C42.8954 46 42 45.1046 42 44V44C42 42.8954 42.8954 42 44 42H44C45.1046 42 46 42.8954 46 44V44Z" fill="#DB9F93"/>
  <path d="M58 44C58 45.1046 57.1046 46 56 46H56C54.8954 46 54 45.1046 54 44V44C54 42.8954 54.8954 42 56 42H56C57.1046 42 58 42.8954 58 44V44Z" fill="#DB9F93"/>
  <path d="M55 50H45C43.8954 50 43 50.8954 43 52C43 53.1046 43.8954 54 45 54H55C56.1046 54 57 53.1046 57 52C57 50.8954 56.1046 50 55 50Z" fill="#DB9F93"/>
  <path d="M38 30C36.3431 30 35 28.6569 35 27V18C35 16.3431 36.3431 15 38 15C39.6569 15 41 16.3431 41 18V27C41 28.6569 39.6569 30 38 30Z" fill="#6B4F4B"/>
  <path d="M62 30C60.3431 30 59 28.6569 59 27V18C59 16.3431 60.3431 15 62 15C63.6569 15 65 16.3431 65 18V27C65 28.6569 63.6569 30 62 30Z" fill="#6B4F4B"/>
</svg> 